<?xml version="1.0" encoding="UTF-8"?>
<svg xmlns="http://www.w3.org/2000/svg" viewBox="0 18 530 520" preserveAspectRatio="xMidYMid meet" style="display:block">
  <g transform="matrix(1.3333333,0,0,-1.3333333,0,520)">
    <g>
      <g>
        <g transform="translate(160,120)">
          <path style="fill:#ff0033;fill-opacity:1;fill-rule:nonzero;stroke:none" d="M 0,0 102.827,59.668 0,119.046 Z m -115.28,-70.965 c -17.09,4.635 -30.414,18.248 -35.338,35.048 -8.11,30.993 -8.11,95.585 -8.11,95.585 0,0 0,64.592 8.11,95.295 4.924,17.089 18.248,30.414 35.338,35.048 30.703,8.4 154.673,8.4 154.673,8.4 0,0 124.26,0 154.964,-8.4 17.379,-4.634 30.413,-17.959 35.048,-35.048 8.399,-30.703 8.399,-95.295 8.399,-95.295 0,0 0,-64.592 -8.399,-95.585 -4.635,-16.8 -17.669,-30.413 -35.048,-35.048 -30.704,-8.4 -154.964,-8.4 -154.964,-8.4 0,0 -123.97,0 -154.673,8.4"/>
        </g>
        <g transform="translate(160,120)">
          <path style="fill:#ffffff;fill-opacity:1;fill-rule:nonzero;stroke:none" d="M 0,0 102.827,59.668 0,119.046 Z"/>
        </g>
      </g>
    </g>
  </g>
</svg>